<?xml version="1.0" encoding="utf-8"?>
<!-- Generator: Adobe Illustrator 25.4.1, SVG Export Plug-In . SVG Version: 6.00 Build 0)  -->
<svg version="1.1" id="Layer_1" xmlns="http://www.w3.org/2000/svg" xmlns:xlink="http://www.w3.org/1999/xlink" x="0px" y="0px"
	 viewBox="0 0 69 51.9" enable-background="new 0 0 69 51.9" xml:space="preserve">
<g>
	<polygon fill="#E3731C" points="65.7,15.9 65.7,6.4 59.2,6.4 59.2,2.5 56.7,2.5 56.7,0 43.9,0 43.9,2.5 43.9,6.4 43.9,12.7 
		43.9,15.9 43.9,22.3 51.9,22.3 56.7,22.3 59.2,22.3 65.7,22.3 69,22.3 69,15.9 	"/>
	<g>
		<g>
			<path d="M46.7,34.3c-2.2,0.4-3.4,2-3.4,4.8c0,2.9,1.5,4.8,3.8,4.8c1.1,0,2.1-0.4,4.1-1.4v2.3c-2.5,1.1-3.9,1.5-5.9,1.5
				c-2.2,0-3.7-0.6-4.9-1.8c-1.3-1.3-1.9-2.9-1.9-4.8c0-4.1,3.1-6.9,7.6-6.9c3,0,5,1.4,5,3.3c0,1.3-1,2.2-2.4,2.2
				c-0.7,0-1.3-0.2-2.1-0.6L46.7,34.3L46.7,34.3z"/>
			<path d="M35.8,39.8c2-2.5,2.7-3.5,2.7-4.7c0-1.2-1-2.2-2.3-2.2c-0.8,0-1.5,0.4-1.9,0.8v5.1L31,43v-9.8h-3.1l-5.2,8.5v-8.5H21
				l-4.7,1.1v1.2l2.6,0.3v10.4h3.3l4.9-8v8h3.6L35.8,39.8z"/>
			<path d="M6.5,44.5c0.4,0,0.5,0,0.7,0c2.7,0,4.1-1.6,4.1-4.8c0-2.7-1.2-4.1-3.3-4.1c-0.4,0-0.7,0-1.5,0.1L6.5,44.5L6.5,44.5z
				 M6.5,50.2l2.1,0.5v1.2H0.2v-1.2l1.9-0.5V35.7H0v-1.2l5.1-1.5h1.3v1.7c2.4-1.4,3.2-1.7,4.5-1.7c2.8,0,5,2.6,5,6.2
				c0,4.2-2.8,7-7.2,7c-0.5,0-1.3,0-2.2-0.1L6.5,50.2L6.5,50.2z"/>
		</g>
		<g>
			<rect x="65.7" y="15.9" fill="#E669A2" width="3.3" height="6.4"/>
			<rect x="56.7" y="2.5" fill="#F3BC87" width="2.5" height="3.9"/>
			<rect x="43.9" fill="#EE9C34" width="12.8" height="2.5"/>
			<rect x="43.9" y="2.5" fill="#E3731C" width="12.8" height="3.9"/>
			<rect x="59.2" y="6.4" fill="#F3BE26" width="6.5" height="9.6"/>
			<rect x="59.2" y="15.9" fill="#DB4E18" width="6.5" height="6.4"/>
			<rect x="56.7" y="6.4" fill="#E88C14" width="2.5" height="9.6"/>
			<rect x="56.7" y="15.9" fill="#D1390D" width="2.5" height="6.4"/>
			<polygon fill="#D85604" points="51.9,15.9 56.7,15.9 56.7,6.4 43.9,6.4 43.9,12.7 51.9,12.7 			"/>
			<rect x="51.9" y="15.9" fill="#C22303" width="4.8" height="6.4"/>
			<rect x="43.9" y="12.7" fill="#C14303" width="8" height="3.2"/>
			<rect x="43.9" y="15.9" fill="#AD1B02" width="8" height="6.4"/>
			<rect x="31.1" y="22.3" fill="#AD1B02" width="12.9" height="3.2"/>
		</g>
	</g>
</g>
</svg>
